{"title":"The Reeds 2010 BRRip XviD Ac3 Feel-Free","uid":7017406,"size":1310613791,"categoryP":"video","categoryS":"movies","magnet":"?xt=urn:btih:0f2d67219018054d58a2665803658c1435cf61e0&amp;dn=The+Reeds+2010+BRRip+XviD+Ac3+Feel-Free&amp;tr=udp%3A%2F%2Ftracker.openbittorrent.com%3A80&amp;tr=udp%3A%2F%2Fopen.demonii.com%3A1337&amp;tr=udp%3A%2F%2Ftracker.coppersurfer.tk%3A6969&amp;tr=udp%3A%2F%2Fexodus.desync.com%3A6969","seeders":2,"leechers":0,"uploader":".BONE.","files":8,"time":1328710792,"description":"Genre:Horror | Mystery | Thriller\nLanguage:English\n &lt;a href=&quot;\nhttp://www.imdb.com/title/tt1327200/&quot; rel=&quot;nofollow&quot; target=&quot;_NEW&quot;&gt;\nhttp://www.imdb.com/title/tt1327200/&lt;/a&gt;\n\nSource:BluRay.x264-BRMP Thanks!\nEncoder:Tony\n\nFormat : AVI\nFormat/Info : Audio Video Interleave\nFile size : 1.22 GiB\nDuration : 1h 22mn\nOverall bit rate : 2 106 Kbps\n\nVideo\nID : 0\nFormat : MPEG-4 Visual\nFormat profile : Advanced Simple@L5\nFormat settings, BVOP : 1\nFormat settings, QPel : No\nFormat settings, GMC : No warppoints\nFormat settings, Matrix : Default (H.263)\nCodec ID : XVID\nCodec ID/Hint : XviD\nDuration : 1h 22mn\nBit rate : 1 649 Kbps\nWidth : 640 pixels\nHeight : 272 pixels\nDisplay aspect ratio : 2.35:1\nFrame rate : 23.976 fps\nColor space : YUV\nChroma subsampling : 4:2:0\nBit depth : 8 bits\nScan type : Progressive\nCompression mode : Lossy\nBits/(Pixel*Frame) : 0.395\nStream size : 977 MiB (78%)\nWriting library : XviD 1.2.1 (UTC 2008-12-04)\n\nAudio\nID : 1\nFormat : AC-3\nFormat/Info : Audio Coding 3\nMode extension : CM (complete main)\nCodec ID : 2000\nDuration : 1h 22mn\nBit rate mode : Constant\nBit rate : 448 Kbps\nChannel(s) : 6 channels\nChannel positions : Front: L C R, Side: L R, LFE\nSampling rate : 48.0 KHz\nBit depth : 16 bits\nCompression mode : Lossy\nStream size : 266 MiB (21%)\nAlignment : Aligned on interleaves\nInterleave, duration : 42 ms (1.00 video frame)\nInterleave, preload duration : 512 ms\n\n\nPlot:\nA weekend boating party turns into a nightmare for a group of young Londoners when they stumble upon a terrifying secret hidden in the reeds\n\n\n","torrent":{"xt":"urn:btih:0f2d67219018054d58a2665803658c1435cf61e0","amp;dn":"The+Reeds+2010+BRRip+XviD+Ac3+Feel-Free","amp;tr":["udp%3A%2F%2Ftracker.openbittorrent.com%3A80","udp%3A%2F%2Fopen.demonii.com%3A1337","udp%3A%2F%2Ftracker.coppersurfer.tk%3A6969","udp%3A%2F%2Fexodus.desync.com%3A6969"],"infoHash":"0f2d67219018054d58a2665803658c1435cf61e0","infoHashBuffer":{"type":"Buffer","data":[15,45,103,33,144,24,5,77,88,162,102,88,3,101,140,20,53,207,97,224]},"announce":[],"urlList":[]}}